<?xml version="1.0" encoding="UTF-8" standalone="no"?>
<!-- Created with Inkscape (http://www.inkscape.org/) -->

<svg
   width="512"
   height="512"
   viewBox="0 0 512 512"
   version="1.1"
   id="svg5"
   inkscape:version="1.2.2 (b0a8486541, 2022-12-01)"
   sodipodi:docname="0x.svg"
   inkscape:export-filename="0x_256.png"
   inkscape:export-xdpi="3"
   inkscape:export-ydpi="3"
   xmlns:inkscape="http://www.inkscape.org/namespaces/inkscape"
   xmlns:sodipodi="http://sodipodi.sourceforge.net/DTD/sodipodi-0.dtd"
   xmlns="http://www.w3.org/2000/svg"
   xmlns:svg="http://www.w3.org/2000/svg">
  <sodipodi:namedview
     id="namedview7"
     pagecolor="#ffffff"
     bordercolor="#000000"
     borderopacity="0.25"
     inkscape:showpageshadow="2"
     inkscape:pageopacity="0.0"
     inkscape:pagecheckerboard="0"
     inkscape:deskcolor="#d1d1d1"
     inkscape:document-units="px"
     showgrid="false"
     inkscape:zoom="0.41503906"
     inkscape:cx="-386.71059"
     inkscape:cy="490.3153"
     inkscape:window-width="1902"
     inkscape:window-height="1158"
     inkscape:window-x="8"
     inkscape:window-y="32"
     inkscape:window-maximized="1"
     inkscape:current-layer="layer1" />
  <defs
     id="defs2">
    <inkscape:path-effect
       effect="fillet_chamfer"
       id="path-effect490"
       is_visible="true"
       lpeversion="1"
       nodesatellites_param="F,0,0,1,0,0,0,1 @ F,0,0,1,0,0,0,1 @ F,0,0,1,0,0,0,1 @ F,0,0,1,0,0,0,1 @ F,0,0,1,0,0,0,1 @ F,0,0,1,0,0,0,1 @ F,0,0,1,0,0,0,1 @ F,0,0,1,0,0,0,1 @ F,0,0,1,0,0,0,1 @ F,0,0,1,0,0,0,1 @ F,0,0,1,0,0,0,1 @ F,0,0,1,0,0,0,1 | F,0,0,1,0,0,0,1 @ F,0,0,1,0,0,0,1 @ F,0,0,1,0,0,0,1 @ F,0,0,1,0,0,0,1 @ F,0,0,1,0,0,0,1 @ F,0,0,1,0,0,0,1 @ F,0,0,1,0,0,0,1 @ F,0,0,1,0,0,0,1 @ F,0,0,1,0,0,0,1 @ F,0,0,1,0,0,0,1 @ F,0,0,1,0,0,0,1 @ F,0,0,1,0,0,0,1 @ F,0,0,1,0,0,0,1 @ F,0,0,1,0,0,0,1 @ F,0,0,1,0,0,0,1 @ F,0,0,1,0,0,0,1 | F,0,0,1,0,0,0,1 @ F,0,0,1,0,0,0,1 @ F,0,0,1,0,0,0,1 @ F,0,0,1,0,0,0,1 @ F,0,0,1,0,0,0,1 @ F,0,0,1,0,0,0,1 @ F,0,0,1,0,0,0,1 | F,0,0,1,0,0,0,1 @ F,0,0,1,0,0,0,1 @ F,0,0,1,0,0,0,1 @ F,0,0,1,0,0,0,1 | F,0,0,1,0,0,0,1 @ F,0,0,1,0,0,0,1 @ F,0,0,1,0,0,0,1 @ F,0,0,1,0,0,0,1 @ F,0,0,1,0,0,0,1 @ F,0,0,1,0,0,0,1 @ F,0,0,1,0,0,0,1"
       unit="px"
       method="auto"
       mode="F"
       radius="0"
       chamfer_steps="1"
       flexible="false"
       use_knot_distance="true"
       apply_no_radius="true"
       apply_with_radius="true"
       only_selected="false"
       hide_knots="false" />
  </defs>
  <g
     inkscape:label="Layer 1"
     inkscape:groupmode="layer"
     id="layer1">
    <rect
       style="fill:#ffffff;fill-opacity:1;stroke:none;stroke-width:46.0563;stroke-linejoin:miter;stroke-opacity:1"
       id="rect6519"
       width="767.06653"
       height="605.4245"
       x="-36.434116"
       y="-49.485367" />
    <path
       id="path398"
       style="font-size:256px;font-family:'Share Tech Mono';-inkscape-font-specification:'Share Tech Mono';letter-spacing:-32px;baseline-shift:baseline;fill:#000000;fill-opacity:1;stroke:#000000;stroke-width:11.6087;stroke-miterlimit:4;stroke-dasharray:none;stroke-opacity:1;paint-order:stroke markers fill"
       d="m 156.08076,106.76396 c -22.17229,0 -39.6548,6.1113 -52.44651,18.33448 -12.791705,12.22318 -19.186796,30.27329 -19.186796,54.15112 v 153.50086 c 0,23.59359 6.395091,41.64368 19.186796,54.15113 13.07596,12.22318 30.55849,18.33448 52.44651,18.33448 h 8.52637 c 21.88804,0 39.22865,-6.1113 52.02035,-18.33448 13.07597,-12.50745 19.61295,-30.55754 19.61295,-54.15113 V 179.24956 c 0,-23.87783 -6.39509,-41.92794 -19.18679,-54.15112 -12.79171,-12.22318 -30.27423,-18.33448 -52.44651,-18.33448 z m 87.83698,0 74.19024,77.17659 -67.36848,72.05943 67.36848,72.05946 -74.19024,77.17659 h 40.07821 l 53.72497,-56.07046 51.16805,56.07046 h 41.78608 l -73.33792,-77.38804 69.0731,-71.84801 -69.0731,-71.84799 73.33792,-77.38803 h -41.78608 l -51.16805,56.07046 -53.72497,-56.07046 z m -87.83698,31.978 h 8.52637 c 10.23336,0 18.62151,3.2701 25.1595,9.80808 6.82222,6.25372 10.23099,13.78725 10.23099,22.59931 L 120.69027,286.69951 V 171.14935 c 0,-8.81206 3.27011,-16.34559 9.80809,-22.59931 6.82224,-6.53798 15.34903,-9.80808 25.5824,-9.80808 z m 182.06958,66.73087 48.60784,50.52715 -48.60784,50.52719 -46.90323,-50.52719 z m -138.15272,20.2538 v 115.12401 c 0,8.81205 -3.40877,16.48747 -10.23099,23.02545 -6.53799,6.25371 -14.92614,9.38195 -25.1595,9.38195 h -8.52637 c -10.23337,0 -18.76016,-3.12824 -25.5824,-9.38195 -6.53798,-6.53798 -9.80809,-14.2134 -9.80809,-23.02545 z"
       inkscape:path-effect="#path-effect490"
       inkscape:original-d="m 156.08076,106.76396 c -22.17229,0 -39.6548,6.1113 -52.44651,18.33448 -12.791705,12.22318 -19.186796,30.27329 -19.186796,54.15112 v 153.50086 c 0,23.59359 6.395091,41.64368 19.186796,54.15113 13.07596,12.22318 30.55849,18.33448 52.44651,18.33448 h 8.52637 c 21.88804,0 39.22865,-6.1113 52.02035,-18.33448 13.07597,-12.50745 19.61295,-30.55754 19.61295,-54.15113 V 179.24956 c 0,-23.87783 -6.39509,-41.92794 -19.18679,-54.15112 -12.79171,-12.22318 -30.27423,-18.33448 -52.44651,-18.33448 z m 87.83698,0 74.19024,77.17659 -67.36848,72.05943 67.36848,72.05946 -74.19024,77.17659 h 40.07821 l 53.72497,-56.07046 51.16805,56.07046 h 41.78608 l -73.33792,-77.38804 69.0731,-71.84801 -69.0731,-71.84799 73.33792,-77.38803 h -41.78608 l -51.16805,56.07046 -53.72497,-56.07046 z m -87.83698,31.978 h 8.52637 c 10.23336,0 18.62151,3.2701 25.1595,9.80808 6.82222,6.25372 10.23099,13.78725 10.23099,22.59931 L 120.69027,286.69951 V 171.14935 c 0,-8.81206 3.27011,-16.34559 9.80809,-22.59931 6.82224,-6.53798 15.34903,-9.80808 25.5824,-9.80808 z m 182.06958,66.73087 48.60784,50.52715 -48.60784,50.52719 -46.90323,-50.52719 z m -138.15272,20.2538 v 115.12401 c 0,8.81205 -3.40877,16.48747 -10.23099,23.02545 -6.53799,6.25371 -14.92614,9.38195 -25.1595,9.38195 h -8.52637 c -10.23337,0 -18.76016,-3.12824 -25.5824,-9.38195 -6.53798,-6.53798 -9.80809,-14.2134 -9.80809,-23.02545 z" />
  </g>
</svg>
